<svg version="1.1" id="Layer_1" xmlns="http://www.w3.org/2000/svg" xmlns:xlink="http://www.w3.org/1999/xlink" x="0px" y="0px"
	 width="100%" viewBox="0 0 496 496" enable-background="new 0 0 496 496" xml:space="preserve">
<path fill="#000000" opacity="1.000000" stroke="none" 
	d="
M93.732925,176.848999 
	C106.137230,151.399002 123.012001,129.958908 145.196915,112.922150 
	C168.333801,95.154305 194.335587,83.994858 223.275299,79.534721 
	C244.729996,76.228157 266.165741,76.608284 287.235779,80.935600 
	C309.716919,85.552727 330.823242,94.293144 349.663025,107.774391 
	C389.004028,135.925766 414.374725,173.587036 422.036896,221.360550 
	C431.332336,279.317657 415.553711,330.479919 374.577667,373.105896 
	C347.775726,400.987000 314.658234,417.618439 276.647583,422.860046 
	C230.103058,429.278381 186.798065,419.389709 148.520584,391.281860 
	C113.421829,365.508209 90.861092,331.159851 81.484467,288.636414 
	C73.023781,250.266800 77.145569,212.994492 93.732925,176.848999 
M371.297485,370.798309 
	C388.884644,353.036316 401.948517,332.513336 410.666962,308.983429 
	C421.360962,280.121826 423.573395,250.567123 418.309845,220.600204 
	C413.334045,192.271362 401.833801,166.393341 383.257050,144.286331 
	C351.482635,106.473679 311.303680,84.688843 261.376465,81.581955 
	C237.003571,80.065269 213.520935,83.379936 190.904724,92.119156 
	C153.409866,106.607666 124.189499,131.282837 103.960060,166.028992 
	C90.216034,189.635803 82.393570,215.108978 81.703499,242.751770 
	C81.374413,255.934296 81.704247,269.007812 84.019104,281.897766 
	C90.166405,316.128143 105.544029,345.903351 130.274002,370.261597 
	C163.564560,403.051819 203.411453,420.939117 250.798798,420.799957 
	C273.240509,420.734039 294.812378,416.868164 315.471100,408.218994 
	C336.276337,399.508545 354.761139,387.213348 371.297485,370.798309 
z"/>
<path fill="#000000" opacity="1.000000" stroke="none" 
	d="
M134.644562,253.823578 
	C133.756973,217.190063 147.043121,187.084259 173.978806,163.196487 
	C194.481094,145.014145 218.602600,135.511948 246.168991,134.561295 
	C273.796234,133.608536 298.925659,140.606552 320.949249,157.381805 
	C346.602570,176.921799 362.353577,202.556992 366.461151,234.817413 
	C370.946686,270.046478 362.243713,301.678528 338.663666,328.380188 
	C316.281921,353.724792 287.862518,366.654724 253.765442,367.500793 
	C226.522354,368.176819 202.003616,360.690369 180.525848,344.324738 
	C157.479767,326.764099 142.429962,303.709839 136.720490,274.981903 
	C135.364044,268.156799 134.162918,261.310730 134.644562,253.823578 
M355.106598,209.387268 
	C354.817383,208.787018 354.506989,208.195953 354.242035,207.585175 
	C338.397095,171.053619 310.256287,148.888428 271.940826,140.900391 
	C243.636047,134.999390 216.502975,140.633560 191.561859,156.168869 
	C150.735855,181.598557 130.539536,230.932205 142.315094,278.089142 
	C147.818878,300.129791 159.126114,318.819641 176.188889,333.975067 
	C193.161179,349.050140 212.623108,358.296295 235.250061,361.706879 
	C247.796661,363.598053 260.140381,363.675842 272.264252,361.078339 
	C304.952362,354.075073 330.337524,336.363983 347.658142,307.460785 
	C358.190063,289.885956 363.322327,270.698669 363.352692,250.449081 
	C363.373352,236.666641 360.877411,222.991684 355.106598,209.387268 
z"/>
<path fill="#000000" opacity="1.000000" stroke="none" 
	d="
M255.733734,101.097794 
	C253.806015,107.532822 256.031372,112.992043 258.832916,118.351349 
	C255.728561,120.842430 252.771637,119.882095 249.138046,119.087730 
	C251.131577,115.398315 251.308243,111.970428 249.521545,107.241966 
	C248.042526,111.157402 246.975159,114.015007 245.881271,116.862434 
	C245.473480,117.923935 245.250717,119.235313 243.742188,119.267166 
	C242.346802,119.296646 241.727676,118.225830 241.248581,117.151077 
	C240.062439,114.490280 239.167938,111.677231 236.872757,108.830391 
	C236.342865,112.969498 237.427460,116.200920 238.625015,119.482300 
	C236.045410,121.415276 233.633102,121.305428 230.947037,120.016266 
	C232.427094,113.402687 235.799164,107.001099 231.155396,100.249893 
	C234.145554,98.253983 237.171005,97.474022 239.471863,100.417686 
	C241.355576,102.827698 242.315842,105.959511 243.947205,109.308609 
	C246.185654,106.882332 246.686844,104.099449 247.600403,101.594482 
	C249.124115,97.416496 252.459625,98.353729 255.489243,98.696907 
	C256.426697,98.803101 256.234131,99.995827 255.733734,101.097794 
z"/>
<path fill="#000000" opacity="1.000000" stroke="none" 
	d="
M207.776154,118.241409 
	C210.947540,119.710129 213.788910,121.014618 216.672104,122.338310 
	C214.342087,125.631409 214.342087,125.631409 202.773758,123.165749 
	C201.511322,125.542274 205.272461,125.629913 204.700089,127.946159 
	C202.462936,129.478027 199.801163,130.460281 196.483582,130.617691 
	C196.321472,123.530457 194.432816,117.250763 189.417221,111.899971 
	C191.416611,109.347778 194.355698,108.006615 197.129456,108.427269 
	C200.632492,108.958534 196.647369,113.076569 199.230865,114.681114 
	C202.933701,112.827179 199.293304,108.912781 201.242889,106.890045 
	C203.179733,104.880569 205.806168,103.736458 209.000153,105.227959 
	C208.632324,108.161301 206.501694,110.008759 205.349472,112.294350 
	C203.849121,115.270477 204.446228,116.980125 207.776154,118.241409 
z"/>
<path fill="#000000" opacity="1.000000" stroke="none" 
	d="
M323.254150,130.325592 
	C325.493896,126.870087 328.408966,124.118759 327.487335,118.958183 
	C332.962250,121.078400 337.046143,123.721283 339.920624,127.744804 
	C341.534729,130.004120 341.652130,133.377823 338.924835,134.854126 
	C334.879303,137.043976 335.025024,140.639099 334.605194,144.168152 
	C334.418335,145.738846 335.206726,148.001373 332.703552,147.916733 
	C330.369720,147.837814 329.605164,145.920761 329.534271,143.631973 
	C329.457428,141.151321 330.799408,138.746887 329.891357,136.269089 
	C329.682434,135.699097 329.120544,135.258453 328.675873,134.701691 
	C325.025604,135.437103 325.480713,138.511093 324.945740,141.191452 
	C321.135803,141.331406 318.896057,139.326538 316.803833,136.312286 
	C319.394287,134.733093 322.017761,133.487289 323.254150,130.325592 
M334.406219,128.134354 
	C331.536835,127.149895 331.231689,129.184357 330.357788,131.652359 
	C333.206970,131.869751 335.454834,132.448120 334.406219,128.134354 
z"/>
<path fill="#000000" opacity="1.000000" stroke="none" 
	d="
M159.332825,150.359711 
	C159.655411,152.423141 161.721558,152.288666 162.772644,153.590927 
	C161.048279,155.715454 159.833359,158.088898 156.241333,158.496872 
	C156.203384,151.507187 153.329376,145.542358 151.017227,139.395615 
	C150.480484,137.968674 150.597336,136.426743 151.872849,135.242859 
	C153.232208,133.981155 154.650345,134.510666 156.048401,135.117569 
	C161.964554,137.685837 166.833618,142.251862 173.701462,143.639008 
	C172.048386,147.040222 169.757217,148.615509 167.035568,149.735092 
	C163.167374,144.284698 161.918335,144.372543 159.332825,150.359711 
z"/>
<path fill="#000000" opacity="1.000000" stroke="none" 
	d="
M129.445602,160.911697 
	C130.420410,156.727737 133.110062,153.779373 136.194443,151.316559 
	C138.525635,149.455170 141.509567,148.960007 144.112900,150.896317 
	C146.728973,152.842117 148.093216,155.827042 146.649033,158.822067 
	C144.619705,163.030655 144.701492,165.789749 150.218750,166.472687 
	C149.290222,170.004639 147.132538,171.903915 144.453964,173.735367 
	C140.715591,167.967911 136.404755,163.086777 129.445602,160.911697 
M142.209564,159.666229 
	C142.198639,158.876205 142.408447,157.995667 142.129517,157.315567 
	C141.596268,156.015503 140.532852,155.218506 139.011383,155.357803 
	C138.084473,155.442657 137.463211,155.970627 137.383392,156.908691 
	C137.251434,158.459778 138.325333,159.281708 139.450546,160.025253 
	C140.190704,160.514328 140.975311,160.599930 142.209564,159.666229 
z"/>
<path fill="#000000" opacity="1.000000" stroke="none" 
	d="
M367.931580,153.161072 
	C368.791351,154.418182 369.448608,155.381302 370.042664,156.381927 
	C371.828766,159.390350 372.244476,162.430695 369.461212,165.021820 
	C366.800476,167.498840 363.819519,167.287460 360.701508,165.597214 
	C355.680664,162.875473 355.642853,162.945206 352.887756,167.732285 
	C349.960510,166.462234 348.730988,163.800125 346.835693,161.146591 
	C353.979645,158.869034 358.719513,154.322327 362.727448,148.671295 
	C365.613098,148.538620 366.036896,151.473480 367.931580,153.161072 
M365.766083,157.038544 
	C364.765839,156.293900 363.872711,156.770706 363.152100,157.430725 
	C362.113190,158.382263 360.647919,159.163025 360.893982,160.907928 
	C361.012848,161.750977 361.620880,162.422287 362.541992,162.431793 
	C364.359467,162.450562 365.658020,161.494705 366.259491,159.841019 
	C366.505310,159.165146 366.218445,158.295502 365.766083,157.038544 
z"/>
<path fill="#000000" opacity="1.000000" stroke="none" 
	d="
M275.743103,119.945984 
	C272.878723,122.254272 270.982056,122.134583 266.334930,119.543884 
	C273.624390,112.436417 266.315430,106.766678 264.419739,100.493935 
	C269.698853,97.802467 270.050110,98.031837 274.678833,107.544327 
	C276.796295,103.998459 277.575287,97.320534 283.876953,102.951202 
	C280.678162,108.267143 272.798218,111.333694 275.743103,119.945984 
z"/>
<path fill="#000000" opacity="1.000000" stroke="none" 
	d="
M171.506836,135.413788 
	C167.264175,127.455956 169.486877,120.488838 176.802383,117.458839 
	C180.790192,115.807121 183.138748,116.824463 183.931595,121.657028 
	C180.219101,122.204727 174.779007,120.014221 174.393768,126.210167 
	C174.162155,129.934830 176.331345,133.111481 179.852875,134.363693 
	C185.161072,136.251221 186.303711,131.237411 188.622147,127.908241 
	C191.353668,130.390396 191.481918,132.678635 189.204330,135.198563 
	C184.256317,140.673111 177.162399,140.894440 171.506836,135.413788 
z"/>
<path fill="#000000" opacity="1.000000" stroke="none" 
	d="
M315.433136,112.592598 
	C322.105774,115.527527 322.297028,115.917793 319.254089,119.820770 
	C312.568085,116.080544 308.683105,120.438507 308.709778,131.902679 
	C305.065186,132.769592 302.596008,130.701401 299.746948,128.445297 
	C304.385254,124.680840 305.977051,119.553314 307.471954,114.528877 
	C305.820709,112.144798 303.039612,113.882790 301.194183,112.024361 
	C301.697998,108.631989 303.465912,107.237495 306.934418,108.699509 
	C309.687012,109.859772 312.368286,111.189217 315.433136,112.592598 
z"/>
<path fill="#000000" opacity="1.000000" stroke="none" 
	d="
M342.221008,147.307480 
	C345.527496,143.806458 348.924622,140.824371 349.934174,136.032944 
	C353.487762,137.189377 355.406708,139.231064 357.133453,142.008545 
	C350.996490,145.608414 346.181183,150.125366 343.970795,157.015930 
	C340.312195,156.346344 338.316589,154.176086 336.787567,151.311905 
	C337.916046,149.022614 340.868134,149.566101 342.221008,147.307480 
z"/>
<path fill="#000000" opacity="1.000000" stroke="none" 
	d="
M152.630219,353.735626 
	C149.705658,357.932617 146.345871,358.393982 142.558685,355.736847 
	C138.804916,353.103088 138.834045,351.525604 142.207306,348.479340 
	C143.906631,346.944763 145.343613,345.119629 146.763443,343.573700 
	C152.580185,345.974792 154.053818,348.518036 152.630219,353.735626 
M148.170380,349.394379 
	C145.503250,349.671844 144.901657,351.036774 146.033691,353.690643 
	C148.204895,352.980621 150.584061,352.807678 148.170380,349.394379 
z"/>
<path fill="#000000" opacity="1.000000" stroke="none" 
	d="
M322.325226,370.207947 
	C326.794525,372.164368 326.783142,376.639008 329.109253,379.699158 
	C325.946747,382.323944 323.917603,379.180054 321.507385,379.548004 
	C319.846466,381.202271 322.454895,382.427643 322.016724,384.032593 
	C320.988007,385.388123 319.903534,385.385162 318.899628,383.972473 
	C318.425781,383.305664 318.054199,382.542511 317.761139,381.775269 
	C316.857910,379.410217 313.047760,377.620575 314.651672,375.092468 
	C316.678284,371.898163 319.566772,376.134491 322.258911,375.586121 
	C323.179535,373.784393 319.591156,372.180603 322.325226,370.207947 
z"/>
<path fill="#000000" opacity="1.000000" stroke="none" 
	d="
M328.745972,365.565430 
	C335.087280,360.740784 341.050568,361.959869 341.597565,367.916290 
	C342.001770,372.317780 339.053314,374.393066 334.929810,376.263458 
	C333.087128,372.616211 329.184570,370.375336 328.745972,365.565430 
M333.754791,366.905365 
	C333.248657,369.414154 334.930817,370.634155 336.484802,372.050446 
	C339.459625,368.184692 338.991089,367.153992 333.754791,366.905365 
z"/>
<path fill="#000000" opacity="1.000000" stroke="none" 
	d="
M197.962738,384.565735 
	C196.611984,389.396851 193.554153,390.664795 189.464508,389.317200 
	C185.755768,388.095123 185.018051,384.984680 186.027863,381.659851 
	C187.235855,377.682526 190.603683,377.183105 194.087296,377.835663 
	C197.490936,378.473236 198.447845,380.982056 197.962738,384.565735 
M190.382828,386.566925 
	C193.327682,387.829803 193.819656,385.567627 194.127090,383.680511 
	C194.367859,382.202698 193.313965,380.950287 191.716278,381.410736 
	C189.291763,382.109467 188.902374,383.906982 190.382828,386.566925 
z"/>
<path fill="#000000" opacity="1.000000" stroke="none" 
	d="
M235.797943,398.694702 
	C234.838104,400.053864 234.406662,402.019287 232.144028,401.122711 
	C230.399063,400.431274 231.245728,398.933838 231.397705,397.679932 
	C231.712570,395.082245 231.988846,392.479858 232.272049,389.958893 
	C239.189575,388.921906 239.533310,389.305542 239.464615,396.115601 
	C239.447098,397.852478 240.117950,399.596313 240.498642,401.465088 
	C237.598557,402.626556 237.216583,400.034637 235.797943,398.694702 
z"/>
<path fill="#000000" opacity="1.000000" stroke="none" 
	d="
M168.351044,362.393311 
	C171.360611,363.861694 173.018753,365.542999 169.574356,367.772217 
	C168.392883,368.536865 168.880432,369.399994 168.626923,370.253876 
	C167.675705,373.457733 164.337631,374.828857 161.624374,373.103455 
	C160.201187,372.198456 158.784241,370.924683 159.752106,369.051239 
	C160.833099,366.958801 162.176529,369.208954 163.530563,369.487701 
	C163.002335,365.562500 162.337646,361.813080 168.351044,362.393311 
z"/>
<path fill="#000000" opacity="1.000000" stroke="none" 
	d="
M177.253113,379.518860 
	C178.496521,380.233429 179.877045,380.177399 180.298706,381.999451 
	C177.976166,384.594849 175.573486,383.325745 173.687424,381.477692 
	C171.122284,378.964355 170.916779,375.806427 173.100372,372.909729 
	C175.541565,369.671234 178.968918,370.116730 182.114487,371.484406 
	C184.158783,372.373260 184.902786,374.199646 183.199966,376.046814 
	C180.690643,376.688629 179.842819,372.369720 177.360977,374.485931 
	C175.818268,375.801392 175.544113,377.593903 177.253113,379.518860 
z"/>
<path fill="#000000" opacity="1.000000" stroke="none" 
	d="
M223.486359,399.777405 
	C220.812286,399.358063 217.001526,400.178192 216.634399,397.651428 
	C216.167679,394.439148 217.336365,390.802917 218.502228,387.605530 
	C219.275833,385.483948 224.423172,387.059235 226.439117,389.974365 
	C225.558731,392.214508 223.781982,390.002686 222.220520,390.971375 
	C224.125732,392.995453 224.095016,394.819092 221.212311,395.511627 
	C221.031372,397.845154 226.847488,395.677887 223.486359,399.777405 
z"/>
<path fill="#000000" opacity="1.000000" stroke="none" 
	d="
M357.012329,347.986908 
	C359.088257,349.310181 361.523743,349.236877 362.862732,351.133484 
	C362.219513,354.763641 359.246490,353.103699 357.283722,353.680084 
	C356.211670,355.102997 359.360291,357.798218 355.250519,358.547241 
	C354.019836,356.143066 352.686096,353.565582 351.379944,350.974213 
	C350.727264,349.679291 349.590973,348.354218 350.829315,346.887878 
	C352.125519,345.353058 353.544434,346.432037 354.883789,346.971771 
	C355.496002,347.218475 356.078217,347.539642 357.012329,347.986908 
z"/>
<path fill="#000000" opacity="1.000000" stroke="none" 
	d="
M260.850159,390.195618 
	C263.853851,392.105988 263.870789,395.437256 265.480011,397.888947 
	C266.254883,399.069489 267.230499,400.637299 265.244354,401.671478 
	C263.459351,402.600922 262.549774,401.343201 261.749146,399.966370 
	C261.523132,399.577728 261.067444,399.322662 260.719086,399.008087 
	C258.705170,399.153992 259.604950,404.035065 255.922989,401.483582 
	C257.241913,397.694641 257.148010,393.288300 260.850159,390.195618 
z"/>
<path fill="#000000" opacity="1.000000" stroke="none" 
	d="
M207.527985,384.022766 
	C207.577164,385.443756 206.689728,386.568848 207.692947,387.683777 
	C209.566376,387.790985 209.541916,385.511688 210.951141,385.062866 
	C211.781433,384.798431 212.687531,384.730316 213.157715,385.562897 
	C213.428558,386.042480 213.540314,387.089111 213.256027,387.331085 
	C210.429672,389.736816 208.901016,393.449585 205.120605,395.686554 
	C202.954239,391.698517 203.696182,387.604034 203.688446,383.885376 
	C203.683731,381.619141 206.033875,381.577393 207.527985,384.022766 
z"/>
<path fill="#000000" opacity="1.000000" stroke="none" 
	d="
M285.960571,385.676575 
	C287.617798,386.209595 287.775726,387.405273 287.981232,388.546814 
	C288.608337,392.030579 289.111023,395.641815 294.542084,392.753937 
	C294.342529,397.330841 291.137848,397.232269 288.935150,397.753510 
	C286.523102,398.324219 286.272400,395.751770 286.329742,394.400879 
	C286.456238,391.422089 281.526123,388.864532 285.960571,385.676575 
z"/>
<path fill="#000000" opacity="1.000000" stroke="none" 
	d="
M271.079529,392.322418 
	C270.404633,390.079681 270.828186,388.507355 273.055176,388.534180 
	C275.055939,388.558289 275.083862,390.345825 275.086456,391.864868 
	C275.089569,393.671631 274.997131,395.489105 275.700134,396.437134 
	C277.578766,398.200134 279.022888,395.563538 280.978943,397.903534 
	C279.205475,400.820526 276.043457,400.264008 273.083252,400.782593 
	C272.098816,398.038208 272.829285,395.033447 271.079529,392.322418 
z"/>
<path fill="#000000" opacity="1.000000" stroke="none" 
	d="
M160.546204,359.566833 
	C158.481659,360.804321 157.626450,362.654785 156.359619,364.146576 
	C154.607864,366.209412 152.845505,366.420837 151.222046,363.549835 
	C153.116684,361.400299 155.069565,359.268738 156.919464,357.051239 
	C157.875824,355.904816 158.624527,354.368835 160.434891,355.543091 
	C162.029984,356.577698 161.885880,357.950500 160.546204,359.566833 
z"/>
<path fill="#000000" opacity="1.000000" stroke="none" 
	d="
M345.163544,356.183594 
	C346.825623,358.028625 348.253632,359.651489 349.786285,361.168701 
	C350.890198,362.261444 351.413605,363.320984 350.107178,364.546082 
	C348.623474,365.937347 347.324402,365.424652 346.433807,363.877289 
	C345.331024,361.961182 343.987762,360.336700 342.093567,359.165649 
	C340.787048,358.357910 340.140320,357.276855 341.295837,355.887604 
	C342.488922,354.453247 343.760956,354.292999 345.163544,356.183594 
z"/>
<path fill="#000000" opacity="1.000000" stroke="none" 
	d="
M313.251831,388.019958 
	C312.347778,389.899872 311.072388,390.812714 309.891205,388.932739 
	C308.317688,386.428223 307.126160,383.678650 305.840607,381.000702 
	C305.334686,379.946777 305.733826,379.115051 306.797760,378.571167 
	C308.118927,377.895752 309.059082,378.336731 309.629639,379.565796 
	C310.877350,382.253571 312.053040,384.974701 313.251831,388.019958 
z"/>
<path fill="#000000" opacity="1.000000" stroke="none" 
	d="
M208.177734,271.903870 
	C209.614655,275.402008 210.228409,278.903198 212.753922,281.406769 
	C215.203308,280.690033 215.300842,278.570068 215.969009,277.004669 
	C225.509506,254.653198 234.982025,232.272675 244.455246,209.892517 
	C246.337463,205.445831 249.460541,204.771744 255.066162,207.329453 
	C255.066162,237.122116 255.066162,266.681824 255.066162,296.811646 
	C251.737854,298.039185 247.892929,297.405151 244.219482,296.989349 
	C244.219482,271.882996 244.219482,247.084122 244.219482,222.285233 
	C243.890656,222.180435 243.561844,222.075653 243.233017,221.970856 
	C232.600937,246.971619 221.968857,271.972382 211.336777,296.973145 
	C210.629059,296.976685 209.921326,296.980194 209.213608,296.983704 
	C198.166992,271.531464 187.120392,246.079239 176.073792,220.627014 
	C175.357208,246.069641 174.356842,271.264832 175.532837,297.235657 
	C174.772018,298.034271 172.957321,298.170563 171.252426,297.246063 
	C169.221207,296.144562 170.449203,294.302856 170.687805,292.760040 
	C171.992050,284.325684 171.300995,275.813660 171.504318,267.349731 
	C171.904312,250.698639 171.525620,234.030151 171.698074,217.371216 
	C171.734482,213.854431 169.964279,211.011505 169.240845,207.839828 
	C175.946777,204.048645 179.646683,205.428055 182.604874,212.364120 
	C191.028458,232.114899 199.563431,251.818161 208.177734,271.903870 
z"/>
<path fill="#000000" opacity="1.000000" stroke="none" 
	d="
M290.200562,295.758972 
	C292.328583,287.175873 290.350067,278.762238 291.295441,270.593109 
	C292.592010,259.388977 288.862366,250.238235 282.749268,241.375153 
	C275.143585,230.348053 269.781281,217.875610 260.249084,207.496017 
	C264.080078,206.233582 267.184143,206.136948 270.311432,206.168365 
	C272.218201,206.187531 273.136780,207.173050 273.971069,208.898361 
	C280.500336,222.400513 289.230774,234.621887 296.701447,247.580765 
	C297.340332,248.688980 298.124023,249.849548 300.268036,250.294617 
	C304.657379,243.142487 309.351807,235.946121 313.571808,228.481567 
	C317.310089,221.869080 322.303131,215.935104 324.321716,208.343933 
	C325.008972,205.759415 327.744476,205.657104 331.396790,207.673203 
	C320.620483,221.044037 313.213989,236.545883 303.845764,250.801010 
	C302.147552,253.385071 301.125549,256.115448 301.121643,259.210571 
	C301.109528,268.864624 301.006348,278.520111 301.149780,288.171875 
	C301.190796,290.931976 301.949738,293.681458 302.493896,297.169006 
	C298.264771,296.959076 294.182709,299.118774 290.200562,295.758972 
z"/>
</svg>