<svg xmlns="http://www.w3.org/2000/svg" version="1.1" xmlns:xlink="http://www.w3.org/1999/xlink" xmlns:svgjs="http://svgjs.dev/svgjs" width="100%" height="100%" viewBox="0 0 1000 600"><rect width="1000" height="600" x="0" y="0" fill="#f7f7f7"/><g><circle r="166.66666666666666" cx="222.22222391764322" cy="244.4444478352877" fill="#7777" transform="matrix(2.2499999313354513,0,0,2.2499999313354517,0,-250.00000228881902)"/><path d="M109.7841208647362 177.61280351527205L121.23213927348095 177.61280351527205Q122.94418526974368 177.61280351527205 123.45986177464209 178.35537768232575Q123.9755382795405 179.0979518493795 123.89303003875676 180.58310018348692L123.89303003875676 180.58310018348692L119.66448269858978 269.40322138718955Q119.60260151800196 271.0327591426685 118.81877323055639 271.83721449031003Q118.03494494311079 272.6622968981475 116.1785095254765 272.6622968981475L116.1785095254765 272.6622968981475L105.92686060809606 272.6622968981475Q103.92603576909022 272.6622968981475 103.36910514379994 273.1779734030459Q102.81217451850965 273.6936499079443 102.81217451850965 275.7769829877339L102.81217451850965 275.7769829877339L102.81217451850965 277.8603160675235Q102.81217451850965 279.86114090652933 103.41035926419181 280.3561903512318Q104.00854400987397 280.8306127357383 106.07125002946762 280.8306127357383L106.07125002946762 280.8306127357383L142.76679011803867 280.8306127357383Q144.76761495704451 280.8306127357383 145.69583266586164 280.3149362308399Q146.6240503746788 279.7992597259415 146.6240503746788 277.8603160675235L146.6240503746788 277.8603160675235L146.6240503746788 275.92137240910546Q146.6240503746788 273.6936499079443 145.98461150860476 273.1779734030459Q145.36579970272666 272.6622968981475 143.19995838215334 272.6622968981475L143.19995838215334 272.6622968981475L134.14467895613723 272.6622968981475Q130.94748462576706 272.6622968981475 130.06052103734177 271.7753333097222Q129.1735574489165 270.88836972129695 129.25606568970025 267.83556481229834L129.25606568970025 267.83556481229834L132.59764944144197 185.92550877423446Q132.74203886281353 182.43953560112118 132.96893652496883 181.14003080877723Q133.17520712692817 179.84052601643322 133.54649421045505 179.84052601643322L133.54649421045505 179.84052601643322Q134.51596603966408 179.84052601643322 135.0316425445625 181.65570731367563Q135.56794610965682 183.47088861091805 135.93923319318367 185.7811193528629Q136.31052027671055 188.0913500948078 136.82619678160896 189.63837960950303L136.82619678160896 189.63837960950303L166.9623317278722 278.3141113918341Q167.56051647355434 280.17054680946836 168.30309064060808 281.2431539396571Q169.04566480766178 282.3157610698458 171.7271826331335 282.3157610698458L171.7271826331335 282.3157610698458L175.13064756546305 282.3157610698458Q177.0695912238811 282.3157610698458 177.66777596956325 281.6556951435758Q178.2659607152454 280.9750021571099 178.69912897936007 279.63424324437403L178.69912897936007 279.63424324437403L207.51513207308335 193.80504576908226Q208.25770624013708 191.6392044485089 209.04153452758266 188.79267014146967Q209.82536281502826 185.92550877423446 210.62981816266978 183.7802945138571Q211.45490057050722 181.61445319328374 212.25935591814877 181.61445319328374L212.25935591814877 181.61445319328374Q212.63064300167562 181.61445319328374 212.6718971220675 183.92468393522864Q212.71315124245936 186.23491467717355 212.6718971220675 189.16395722499652Q212.63064300167562 192.0929997728195 212.71315124245936 194.03194343123755L212.71315124245936 194.03194343123755L215.31216082714735 269.5476108085611Q215.39466906793112 271.3215379854116 214.85836550283676 272.0022309718775Q214.34268899793835 272.6622968981475 212.42437239971625 272.6622968981475L212.42437239971625 272.6622968981475L200.83196456959993 272.6622968981475Q198.68675030922253 272.6622968981475 198.27420910530378 273.36361694480934Q197.8616679013851 274.0649369914712 197.8616679013851 276.2307783120445L197.8616679013851 276.2307783120445L197.8616679013851 278.00470548889507Q197.8616679013851 279.86114090652933 198.78988561020222 280.3561903512318Q199.71810331901935 280.8306127357383 201.4301493152821 280.8306127357383L201.4301493152821 280.8306127357383L243.44747093440475 280.8306127357383Q245.303906352039 280.8306127357383 245.71644755595776 280.19117386966434Q246.1289887598765 279.5723620637862 246.1289887598765 277.71592664615196L246.1289887598765 277.71592664615196L246.1289887598765 275.4882041449908Q246.1289887598765 273.32236282441744 245.79895579674155 272.9923298612825Q245.46892283360657 272.6622968981475 243.3030815130332 272.6622968981475L243.3030815130332 272.6622968981475L232.47387491016653 272.6622968981475Q230.45242301096476 272.6622968981475 229.93674650606636 272.0228580320735Q229.42107000116792 271.40404622619536 229.33856176038418 269.5476108085611L229.33856176038418 269.5476108085611L225.7907074066831 181.61445319328374Q225.70819916589937 179.69613659506166 226.22387567079778 178.64415652506887Q226.7395521756962 177.61280351527205 228.82288525548577 177.61280351527205L228.82288525548577 177.61280351527205L238.24945176502877 177.61280351527205Q240.64219074775738 177.61280351527205 241.15786725265582 176.95273758900208Q241.67354375755423 176.2720446025362 241.67354375755423 173.89993268000347L241.67354375755423 173.89993268000347L241.67354375755423 172.12600550315295Q241.67354375755423 170.4139595068902 241.15786725265582 169.91891006218776Q240.64219074775738 169.4444876776812 238.9920259320825 169.4444876776812L238.9920259320825 169.4444876776812L207.80391091582646 169.4444876776812Q205.74120489623283 169.4444876776812 205.4317989932938 169.9601641825796Q205.14302015055068 170.475840687478 204.62734364565227 171.96098902158548L204.62734364565227 171.96098902158548L176.03823821408426 258.69777714549843Q175.44005346840208 260.55421256313275 175.17190168585492 261.3792949709702Q174.92437696350368 262.1837503186117 174.38807339840935 262.1837503186117L174.38807339840935 262.1837503186117Q173.81051571292312 262.1837503186117 173.54236393037593 260.78111022528805Q173.27421214782876 259.3784701319644 172.53163798077506 257.212628811391L172.53163798077506 257.212628811391L144.62322553567296 172.86857967020666Q144.25193845214608 171.67221017884236 144.06629491038268 170.92963601178866Q143.88065136861923 170.1870618447349 143.2412125025452 169.81577476120805Q142.6224006966671 169.4444876776812 140.97223588099217 169.4444876776812L140.97223588099217 169.4444876776812L110.38230561041834 169.4444876776812Q108.75276785493936 169.4444876776812 108.01019368788565 169.81577476120805Q107.26761952083194 170.1870618447349 107.26761952083194 171.96098902158548L107.26761952083194 171.96098902158548L107.26761952083194 175.38508101411094Q107.26761952083194 176.7877211074346 107.78329602573035 177.20026231135336Q108.29897253062876 177.61280351527205 109.7841208647362 177.61280351527205L109.7841208647362 177.61280351527205ZM251.03822908650938 300.28193050050646L251.03822908650938 300.28193050050646Q251.03822908650938 305.2530520077272 253.22469746727867 309.64661582946167Q255.41116584804794 314.0195525910002 259.4953237668434 316.7423245368638Q263.5794816856388 319.4444694225315 269.2931773599132 319.4444694225315L269.2931773599132 319.4444694225315Q273.60423294086394 319.4444694225315 278.5341003276927 317.62928812528907Q283.4845947747175 315.81410682804665 288.2700727401748 310.7192229596503Q293.0555507056321 305.624339091254 296.91281096227215 295.97087491955574L296.91281096227215 295.97087491955574L329.0703978077372 214.88590128932935Q329.8129719747909 213.11197411247878 330.26676729910156 212.4312811260129Q330.6999355632162 211.77121519974293 333.2370639673164 211.77121519974293L333.2370639673164 211.77121519974293L339.3220467251177 211.77121519974293Q341.0340927213804 211.77121519974293 341.3228715641235 211.11114927347296Q341.6322774670625 210.43045628700702 341.6322774670625 208.80091853152805L341.6322774670625 208.80091853152805L341.6322774670625 205.3768265390026Q341.6322774670625 204.11857586705048 341.0959739019682 203.8710511446992Q340.5802973970698 203.60289936215207 339.3220467251177 203.60289936215207L339.3220467251177 203.60289936215207L312.7337661325555 203.60289936215207Q310.8773307149212 203.60289936215207 310.27914596923904 204.11857586705048Q309.7015882837528 204.6342523719489 309.7015882837528 206.5731960303669L309.7015882837528 206.5731960303669L309.7015882837528 209.08969737427117Q309.7015882837528 210.57484570837858 310.09350242747564 211.17303045406072Q310.50604363139433 211.77121519974293 312.13558138687335 211.77121519974293L312.13558138687335 211.77121519974293L317.4986170378168 211.77121519974293Q319.87072896034954 211.77121519974293 320.2007619234845 212.22501052405352Q320.53079488661945 212.6581787881682 319.9326101409373 214.28771654364715L319.9326101409373 214.28771654364715L302.70901487733033 258.0995923998163Q301.7395430481213 260.6986019845043 301.2238665432229 262.03936089724016Q300.70819003832446 263.38011980997607 300.1100052926423 263.38011980997607L300.1100052926423 263.38011980997607Q299.67683702852764 263.38011980997607 299.11990640323734 262.30751267978735Q298.56297577794714 261.2349055495987 297.51099570795435 259.0071830484375L297.51099570795435 259.0071830484375L277.3171037761325 213.99893770090404Q276.5745296090788 212.4312811260129 277.0902061139772 212.10124816287788Q277.6058826188756 211.77121519974293 279.9161133608205 211.77121519974293L279.9161133608205 211.77121519974293L286.88805970704703 211.77121519974293Q289.0539010276204 211.77121519974293 289.5695775325188 211.21428457445262Q290.0852540374172 210.6573539491623 290.0852540374172 208.4296314480012L290.0852540374172 208.4296314480012L290.0852540374172 206.5731960303669Q290.0852540374172 204.6342523719489 289.61083165291063 204.11857586705048Q289.1157822082082 203.60289936215207 287.3418550313577 203.60289936215207L287.3418550313577 203.60289936215207L251.84268443415093 203.60289936215207Q250.81133142435408 203.60289936215207 250.31628197965162 203.82979702430737Q249.84185959514505 204.05669468646266 249.84185959514505 205.08804769625948L249.84185959514505 205.08804769625948L249.84185959514505 209.25471385583865Q249.84185959514505 210.80174337053387 250.31628197965162 211.29679281523636Q250.81133142435408 211.77121519974293 252.44086917983307 211.77121519974293L252.44086917983307 211.77121519974293L258.8352578405734 211.77121519974293Q261.0629803417345 211.77121519974293 261.5374027262411 212.22501052405352Q262.0118251107476 212.6581787881682 262.6925180972135 214.1433271222756L262.6925180972135 214.1433271222756L291.8798082744637 278.6028902345772Q292.9111612842605 280.8306127357383 292.95241540465236 281.9857281067108Q292.99366952504425 283.14084347768323 292.0860788764231 285.43044715943216L292.0860788764231 285.43044715943216L290.39465994035623 289.7415027403829Q286.88805970704703 298.6523927450275 283.1133076911907 303.47912483087663Q279.3179286151384 308.30585691672576 275.7494472012413 310.16229233436Q272.20159284754027 312.01872775199433 269.2931773599132 312.01872775199433L269.2931773599132 312.01872775199433Q265.6628147654284 312.01872775199433 263.4763463846591 310.01790291298846Q261.2692509436939 308.0170780739827 261.2692509436939 305.47994966988244L261.2692509436939 305.47994966988244Q261.2692509436939 304.30420723871407 261.9086898097679 303.5822601318563Q262.54812867584195 302.8809400851945 263.4763463846591 302.3240094599042Q264.4045640934762 301.7670788346139 265.3327818022934 301.1482670287358Q266.2609995111105 300.50882816266176 266.87981131698865 299.47747515286494Q267.5192501830627 298.4254950828722 267.5192501830627 296.71344908660944L267.5192501830627 296.71344908660944Q267.5192501830627 293.22747591349616 265.4771712236649 291.32978637547Q263.43509226426727 289.45272389763977 260.09350851252555 289.45272389763977L260.09350851252555 289.45272389763977Q257.78327777058064 289.45272389763977 255.69994469079106 290.7522286899838Q253.6372386711974 292.0517334823278 252.3377338788534 294.46509952525236Q251.03822908650938 296.8784655681769 251.03822908650938 300.28193050050646Z " fill="#ff5722" transform="matrix(2.2499999313354513,0,0,2.2499999313354517,0,-250.00000228881902)"/><path d="MNaN 244.44448004828666 " fill="#ff5722" transform="matrix(2.2499999313354513,0,0,2.2499999313354517,0,-250.00000228881902)"/></g></svg>